<?xml version="1.0" encoding="UTF-8"?><svg id="_圖層_2" xmlns="http://www.w3.org/2000/svg" viewBox="0 0 257.49 456.25"><defs><style>.cls-1,.cls-2,.cls-3,.cls-4,.cls-5,.cls-6,.cls-7,.cls-8,.cls-9{stroke-width:0px;}.cls-2{fill:#55575c;}.cls-3{fill:#d9ecff;}.cls-4{fill:#606266;}.cls-5{fill:#fff;}.cls-6{fill:#d9cff7;}.cls-7{fill:#c0c4cc;}.cls-8{fill:#fce4be;}.cls-9{fill:#303133;}</style></defs><g id="MIB_Location"><path class="cls-7" d="m246.19,456.25H11.29c-6.23,0-11.29-5.07-11.29-11.29V11.29C0,5.07,5.07,0,11.29,0h234.9c6.23,0,11.29,5.07,11.29,11.29v433.66c0,6.23-5.07,11.29-11.29,11.29ZM11.29,2.26C6.31,2.26,2.26,6.31,2.26,11.29v433.66c0,4.98,4.05,9.03,9.04,9.03h234.9c4.98,0,9.04-4.05,9.04-9.03V11.29c0-4.98-4.05-9.03-9.04-9.03H11.29Z"/><path class="cls-3" d="m2.08,313.12h252.97v132c0,5.61-4.04,10.15-9.03,10.15H11.11c-4.99,0-9.03-4.54-9.03-10.15v-132Z"/><rect class="cls-4" x="1.74" y="312.12" width="2" height="2"/><path class="cls-4" d="m250.76,314.12h-3.98v-2h3.98v2Zm-7.97,0h-3.98v-2h3.98v2Zm-7.97,0h-3.98v-2h3.98v2Zm-7.97,0h-3.98v-2h3.98v2Zm-7.97,0h-3.98v-2h3.98v2Zm-7.97,0h-3.98v-2h3.98v2Zm-7.97,0h-3.98v-2h3.98v2Zm-7.97,0h-3.98v-2h3.98v2Zm-7.97,0h-3.98v-2h3.98v2Zm-7.97,0h-3.98v-2h3.98v2Zm-7.97,0h-3.98v-2h3.98v2Zm-7.97,0h-3.98v-2h3.98v2Zm-7.97,0h-3.98v-2h3.98v2Zm-7.97,0h-3.98v-2h3.98v2Zm-7.97,0h-3.98v-2h3.98v2Zm-7.97,0h-3.98v-2h3.98v2Zm-7.97,0h-3.98v-2h3.98v2Zm-7.97,0h-3.98v-2h3.98v2Zm-7.97,0h-3.98v-2h3.98v2Zm-7.97,0h-3.98v-2h3.98v2Zm-7.97,0h-3.98v-2h3.98v2Zm-7.97,0h-3.98v-2h3.98v2Zm-7.97,0h-3.98v-2h3.98v2Zm-7.97,0h-3.98v-2h3.98v2Zm-7.97,0h-3.98v-2h3.98v2Zm-7.97,0h-3.98v-2h3.98v2Zm-7.97,0h-3.98v-2h3.98v2Zm-7.97,0h-3.98v-2h3.98v2Zm-7.97,0h-3.98v-2h3.98v2Zm-7.97,0h-3.98v-2h3.98v2Zm-7.97,0h-3.98v-2h3.98v2Z"/><rect class="cls-4" x="254.74" y="312.12" width="2" height="2"/><rect class="cls-6" x="25.94" y="329.97" width="206" height="110.3"/><path class="cls-9" d="m101.87,395.09h3.41l5.7-18.22h-2.95l-2.67,9.43c-.58,2.1-1.01,3.86-1.66,5.96h-.12c-.62-2.1-1.06-3.86-1.65-5.96l-2.71-9.43h-3.04l5.7,18.22Zm11.18,0h2.88v-13.62h-2.88v13.62Zm1.43-16.17c1.04,0,1.79-.67,1.79-1.72s-.74-1.68-1.79-1.68-1.75.67-1.75,1.68.69,1.72,1.75,1.72Zm10.42,16.52c1.52,0,2.94-.83,3.98-1.86h.07l.23,1.5h2.35v-19.71h-2.88v5.02l.12,2.25c-1.08-.94-2.1-1.54-3.66-1.54-3.02,0-5.82,2.76-5.82,7.18s2.18,7.15,5.61,7.15Zm.69-2.39c-2.14,0-3.34-1.7-3.34-4.79,0-2.94,1.54-4.76,3.43-4.76,1.03,0,1.98.34,2.97,1.26v6.63c-.96,1.15-1.95,1.66-3.06,1.66Zm15.89,2.39c1.79,0,3.34-.6,4.62-1.45l-.99-1.82c-1.03.64-2.03,1.01-3.26,1.01-2.35,0-3.98-1.54-4.21-4.14h8.84c.07-.34.12-.88.12-1.45,0-3.87-1.95-6.47-5.54-6.47-3.18,0-6.23,2.76-6.23,7.18s2.92,7.15,6.63,7.15Zm-3.87-8.38c.28-2.37,1.8-3.68,3.5-3.68,1.98,0,3.02,1.33,3.02,3.68h-6.53Zm17.69,8.38c3.36,0,6.4-2.64,6.4-7.15s-3.04-7.18-6.4-7.18-6.42,2.64-6.42,7.18,3.03,7.15,6.42,7.15Zm0-2.35c-2.16,0-3.47-1.91-3.47-4.79s1.31-4.79,3.47-4.79,3.48,1.91,3.48,4.79-1.36,4.79-3.48,4.79Z"/><path class="cls-9" d="m107.6,326.43h3.13c2.06,0,3.56-.89,3.56-2.73,0-1.26-.76-1.99-1.82-2.22v-.05c.84-.29,1.32-1.13,1.32-2.03,0-1.68-1.38-2.29-3.28-2.29h-2.9v9.31Zm1.48-5.43v-2.73h1.29c1.3,0,1.96.37,1.96,1.34,0,.87-.58,1.39-2,1.39h-1.25Zm0,4.29v-3.16h1.48c1.48,0,2.28.46,2.28,1.52,0,1.12-.84,1.65-2.28,1.65h-1.48Zm8.48,1.33c.84,0,1.58-.42,2.22-.97h.05l.11.79h1.2v-4.18c0-1.86-.8-2.97-2.53-2.97-1.11,0-2.1.47-2.81.91l.54,1c.58-.38,1.28-.72,2.01-.72,1.01,0,1.3.71,1.32,1.52-2.89.32-4.15,1.09-4.15,2.59,0,1.22.85,2.03,2.04,2.03Zm.46-1.17c-.62,0-1.09-.28-1.09-.97,0-.78.68-1.3,2.75-1.54v1.69c-.57.53-1.05.81-1.66.81Zm5.18.99h1.47v-4.94c.61-.61,1.05-.94,1.7-.94.81,0,1.16.47,1.16,1.69v4.19h1.47v-4.38c0-1.76-.66-2.77-2.14-2.77-.95,0-1.67.52-2.3,1.16h-.04l-.13-.98h-1.19v6.96Zm7.9,0h1.47v-4.94c.61-.61,1.05-.94,1.7-.94.81,0,1.16.47,1.16,1.69v4.19h1.47v-4.38c0-1.76-.66-2.77-2.14-2.77-.95,0-1.67.52-2.3,1.16h-.04l-.13-.98h-1.19v6.96Zm10.81.18c.91,0,1.71-.31,2.35-.74l-.51-.93c-.52.33-1.04.52-1.66.52-1.2,0-2.04-.79-2.15-2.12h4.52c.04-.17.06-.45.06-.74,0-1.98-1-3.31-2.84-3.31-1.62,0-3.18,1.41-3.18,3.67s1.49,3.65,3.39,3.65Zm-1.99-4.29c.15-1.21.92-1.88,1.8-1.88,1.01,0,1.54.68,1.54,1.88h-3.34Zm6.25,4.11h1.47v-4.33c.43-1.1,1.11-1.5,1.67-1.5.29,0,.47.04.71.11l.25-1.27c-.22-.1-.43-.15-.77-.15-.75,0-1.48.53-1.97,1.44h-.04l-.13-1.26h-1.19v6.96Z"/><path class="cls-4" d="m232.74,441.27h-5v-2h4v.4h1v1.6Zm-9,0h-4v-2h4v2Zm-8,0h-4v-2h4v2Zm-8,0h-4v-2h4v2Zm-8,0h-4v-2h4v2Zm-8,0h-4v-2h4v2Zm-8,0h-4v-2h4v2Zm-8,0h-4v-2h4v2Zm-8,0h-4v-2h4v2Zm-8,0h-4v-2h4v2Zm-8,0h-4v-2h4v2Zm-8,0h-4v-2h4v2Zm-8,0h-4v-2h4v2Zm-8,0h-4v-2h4v2Zm-8,0h-4v-2h4v2Zm-8,0h-4v-2h4v2Zm-8,0h-4v-2h4v2Zm-8,0h-4v-2h4v2Zm-8,0h-4v-2h4v2Zm-8,0h-4v-2h4v2Zm-8,0h-4v-2h4v2Zm-8,0h-4v-2h4v2Zm-8,0h-4v-2h4v2Zm-8,0h-4v-2h4v2Zm-8,0h-4v-2h4v2Zm-8,0h-4v-2h4v2Zm-5-3h-2v-4h2v4Zm206-2.6h-2v-4h2v4Zm-206-5.4h-2v-4h2v4Zm206-2.6h-2v-4h2v4Zm-206-5.4h-2v-4h2v4Zm206-2.6h-2v-4h2v4Zm-206-5.4h-2v-4h2v4Zm206-2.6h-2v-4h2v4Zm-206-5.4h-2v-4h2v4Zm206-2.6h-2v-4h2v4Zm-206-5.4h-2v-4h2v4Zm206-2.6h-2v-4h2v4Zm-206-5.4h-2v-4h2v4Zm206-2.6h-2v-4h2v4Zm-206-5.4h-2v-4h2v4Zm206-2.6h-2v-4h2v4Zm-206-5.4h-2v-4h2v4Zm206-2.6h-2v-4h2v4Zm-206-5.4h-2v-4h2v4Zm206-2.6h-2v-4h2v4Zm-206-5.4h-2v-4h2v4Zm206-2.6h-2v-4h2v4Zm-206-5.4h-2v-4h2v4Zm206-2.6h-2v-4h2v4Zm-206-5.4h-2v-4h2v4Zm206-2.6h-2v-4h2v4Zm-206-5.4h-2v-4h2v4Zm206-2.6h-2v-.7h-1.3v-2h3.3v2.7Zm-7.3-.7h-4v-2h4v2Zm-8,0h-4v-2h4v2Zm-8,0h-4v-2h4v2Zm-8,0h-4v-2h4v2Zm-8,0h-4v-2h4v2Zm-8,0h-4v-2h4v2Zm-8,0h-4v-2h4v2Zm-8,0h-4v-2h4v2Zm-8,0h-4v-2h4v2Zm-8,0h-4v-2h4v2Zm-8,0h-4v-2h4v2Zm-8,0h-4v-2h4v2Zm-8,0h-4v-2h4v2Zm-8,0h-4v-2h4v2Zm-8,0h-4v-2h4v2Zm-8,0h-4v-2h4v2Zm-8,0h-4v-2h4v2Zm-8,0h-4v-2h4v2Zm-8,0h-4v-2h4v2Zm-8,0h-4v-2h4v2Zm-8,0h-4v-2h4v2Zm-8,0h-4v-2h4v2Zm-8,0h-4v-2h4v2Zm-8,0h-4v-2h4v2Zm-8,0h-4v-2h4v2Z"/><circle class="cls-2" cx="220.28" cy="316.95" r="15.37"/><polygon class="cls-5" points="214.02 317.03 213.02 316.03 220.33 308.71 227.55 315.93 226.54 316.93 220.33 310.72 214.02 317.03"/><rect class="cls-5" x="219.57" y="309.58" width="1.42" height="15.87"/><circle class="cls-8" cx="220.28" cy="359.12" r="21"/><path class="cls-4" d="m220.29,381.12h-.2s.01-2,.01-2h.17c.87,0,1.81-.06,2.69-.18l.27,1.98c-.97.13-1.97.2-2.95.2Zm-3.34-.25c-1.04-.16-2.07-.39-3.08-.7l.58-1.91c.91.28,1.86.49,2.8.63l-.3,1.98Zm9.38-.59l-.55-1.92c.92-.26,1.82-.59,2.69-.99l.82,1.82c-.96.43-1.96.8-2.97,1.08Zm-15.41-1.24c-.95-.45-1.88-.97-2.75-1.55l1.1-1.67c.8.53,1.64,1,2.5,1.41l-.85,1.81Zm21.15-1.34l-1.07-1.69c.81-.51,1.58-1.09,2.3-1.71l1.3,1.52c-.79.68-1.65,1.32-2.53,1.88Zm-26.41-2.13c-.78-.7-1.52-1.46-2.2-2.26l1.53-1.29c.62.73,1.29,1.42,2,2.06l-1.33,1.49Zm31.18-1.97l-1.51-1.32c.63-.72,1.21-1.49,1.73-2.29l1.68,1.09c-.57.88-1.21,1.73-1.9,2.52Zm-35.25-2.84c-.56-.89-1.05-1.83-1.47-2.79l1.83-.8c.38.87.83,1.72,1.34,2.54l-1.7,1.06Zm38.67-2.44l-1.82-.83c.4-.87.74-1.78,1.01-2.69l1.92.56c-.29,1-.67,2-1.11,2.96Zm-41.21-3.32c-.28-1.01-.49-2.05-.62-3.09l1.98-.25c.12.95.31,1.9.56,2.81l-1.93.53Zm42.99-2.72l-1.98-.28c.14-.94.2-1.91.2-2.86h2c0,1.05-.08,2.11-.22,3.15Zm-41.77-3.49l-2-.03c.02-1.05.11-2.11.28-3.14l1.97.32c-.15.94-.24,1.9-.25,2.86Zm39.88-1.84c-.1-.95-.28-1.9-.51-2.82l1.94-.5c.26,1.02.45,2.06.56,3.11l-1.99.21Zm-38.97-3.81l-1.91-.6c.31-1,.7-1.99,1.16-2.94l1.8.87c-.42.86-.77,1.76-1.05,2.67Zm37.54-1.73c-.37-.88-.8-1.74-1.3-2.56l1.71-1.03c.54.9,1.02,1.85,1.42,2.81l-1.84.77Zm-35.06-3.43l-1.66-1.12c.59-.87,1.24-1.71,1.95-2.49l1.48,1.34c-.64.71-1.24,1.47-1.77,2.26Zm32.11-1.48c-.61-.74-1.27-1.44-1.97-2.09l1.36-1.47c.77.71,1.5,1.48,2.16,2.3l-1.55,1.26Zm-28.27-2.77l-1.28-1.54c.81-.67,1.67-1.29,2.57-1.84l1.04,1.71c-.81.5-1.6,1.06-2.33,1.67Zm24.06-1.11c-.79-.54-1.62-1.03-2.48-1.45l.88-1.79c.94.46,1.86,1,2.73,1.59l-1.13,1.65Zm-19.18-1.88l-.79-1.84c.96-.41,1.97-.76,2.98-1.03l.52,1.93c-.92.25-1.84.56-2.71.94Zm14.04-.65c-.91-.29-1.84-.52-2.79-.68l.33-1.97c1.04.18,2.07.43,3.07.75l-.62,1.9Zm-8.51-.83l-.23-1.99c1.04-.12,2.11-.17,3.15-.14l-.05,2c-.96-.02-1.92.02-2.87.13Z"/><rect class="cls-8" x="30.43" y="390.5" width="36.41" height="74.21" rx="18.21" ry="18.21" transform="translate(-378.97 476.24) rotate(-90)"/><path class="cls-4" d="m65.96,446.81h-3.02v-2h3.02v2Zm-6.03,0h-3.02v-2h3.02v2Zm-6.03,0h-3.02v-2h3.02v2Zm-6.03,0h-3.02v-2h3.02v2Zm-6.03,0h-3.02v-2h3.02v2Zm-6.03,0h-3.02v-2h3.02v2Zm-6.03,0h-.03c-1.05,0-2.1-.09-3.13-.26l.33-1.97c.92.15,1.87.23,2.81.23l.03,2Zm39.29-.06l-.16-1.99c.95-.07,1.89-.23,2.81-.46l.49,1.94c-1.03.26-2.08.43-3.14.52Zm-45.54-.98c-1-.35-1.98-.78-2.91-1.28l.96-1.76c.83.45,1.71.84,2.6,1.15l-.65,1.89Zm51.68-.57l-.8-1.83c.86-.38,1.71-.84,2.5-1.36l1.09,1.67c-.89.58-1.83,1.09-2.79,1.51Zm-57.25-2.46c-.83-.65-1.62-1.38-2.34-2.15l1.47-1.35c.64.7,1.35,1.35,2.09,1.93l-1.23,1.58Zm62.55-1l-1.35-1.47c.7-.64,1.35-1.35,1.93-2.09l1.57,1.23c-.65.83-1.38,1.62-2.16,2.33Zm-66.84-3.66c-.58-.89-1.09-1.83-1.52-2.79l1.83-.8c.38.86.84,1.7,1.36,2.5l-1.67,1.1Zm70.74-1.33l-1.76-.96c.46-.83.84-1.71,1.15-2.6l1.89.65c-.35,1-.78,1.98-1.29,2.91Zm-73.29-4.47c-.26-1.03-.43-2.08-.52-3.14l1.99-.16c.08.94.23,1.89.47,2.81l-1.94.49Zm75.37-1.52l-1.97-.33c.16-.93.24-1.88.24-2.84s-.08-1.86-.23-2.78l1.97-.32c.17,1.02.25,2.06.25,3.1s-.09,2.13-.26,3.17Zm-73.89-4.62l-1.99-.17c.09-1.06.27-2.11.53-3.13l1.94.5c-.24.91-.4,1.86-.48,2.8Zm71.23-4.08c-.31-.9-.69-1.77-1.14-2.6l1.76-.95c.5.93.93,1.91,1.28,2.91l-1.89.65Zm-69.82-1.41l-1.83-.81c.43-.97.94-1.9,1.53-2.79l1.67,1.1c-.52.79-.98,1.63-1.37,2.5Zm67.12-3.58c-.58-.75-1.23-1.45-1.93-2.1l1.36-1.47c.78.72,1.5,1.51,2.15,2.34l-1.58,1.23Zm-63.99-1.16l-1.46-1.36c.72-.78,1.51-1.5,2.34-2.14l1.22,1.58c-.75.58-1.46,1.23-2.1,1.92Zm59.82-2.7c-.79-.52-1.63-.98-2.5-1.36l.81-1.83c.96.43,1.9.94,2.79,1.52l-1.1,1.67Zm-55.33-.78l-.95-1.76c.93-.5,1.91-.93,2.91-1.27l.64,1.89c-.89.3-1.77.69-2.61,1.14Zm50.14-1.52c-.92-.23-1.86-.39-2.8-.47l.16-1.99c1.06.09,2.11.26,3.14.53l-.5,1.94Zm-44.78-.31l-.32-1.97c1.01-.16,2.04-.25,3.06-.25h0l.1,2h0c-1.01,0-1.93.07-2.83.22Zm39.04-.22h-3.02v-2h3.02v2Zm-6.03,0h-3.02v-2h3.02v2Zm-6.03,0h-3.02v-2h3.02v2Zm-6.03,0h-3.02v-2h3.02v2Zm-6.03,0h-3.02v-2h3.02v2Zm-6.03,0h-3.02v-2h3.02v2Z"/><rect class="cls-3" x="43.74" y="44.88" width="170" height="238.49"/><path class="cls-4" d="m213.74,284.62h-5v-2.51h5v2.51Zm-10,0h-5v-2.51h5v2.51Zm-10,0h-5v-2.51h5v2.51Zm-10,0h-5v-2.51h5v2.51Zm-10,0h-5v-2.51h5v2.51Zm-10,0h-5v-2.51h5v2.51Zm-10,0h-5v-2.51h5v2.51Zm-10,0h-5v-2.51h5v2.51Zm-10,0h-5v-2.51h5v2.51Zm-10,0h-5v-2.51h5v2.51Zm-10,0h-5v-2.51h5v2.51Zm-10,0h-5v-2.51h5v2.51Zm-10,0h-5v-2.51h5v2.51Zm-10,0h-5v-2.51h5v2.51Zm-10,0h-5v-2.51h5v2.51Zm-10,0h-5v-2.51h5v2.51Zm-10,0h-5v-2.51h5v2.51Zm-9-1.26h-2v-6.28h2v6.28Zm170-6.28h-2v-6.28h2v6.28Zm-170-6.28h-2v-6.28h2v6.28Zm170-6.28h-2v-6.28h2v6.28Zm-170-6.28h-2v-6.28h2v6.28Zm170-6.28h-2v-6.28h2v6.28Zm-170-6.28h-2v-6.28h2v6.28Zm170-6.28h-2v-6.28h2v6.28Zm-170-6.28h-2v-6.28h2v6.28Zm170-6.28h-2v-6.28h2v6.28Zm-170-6.28h-2v-6.28h2v6.28Zm170-6.28h-2v-6.28h2v6.28Zm-170-6.28h-2v-6.28h2v6.28Zm170-6.28h-2v-6.28h2v6.28Zm-170-6.28h-2v-6.28h2v6.28Zm170-6.28h-2v-6.28h2v6.28Zm-170-6.28h-2v-6.28h2v6.28Zm170-6.28h-2v-6.28h2v6.28Zm-170-6.28h-2v-6.28h2v6.28Zm170-6.28h-2v-6.28h2v6.28Zm-170-6.28h-2v-6.28h2v6.28Zm170-6.28h-2v-6.28h2v6.28Zm-170-6.28h-2v-6.28h2v6.28Zm170-6.28h-2v-6.28h2v6.28Zm-170-6.28h-2v-6.28h2v6.28Zm170-6.28h-2v-6.28h2v6.28Zm-170-6.28h-2v-6.28h2v6.28Zm170-6.28h-2v-6.28h2v6.28Zm-170-6.28h-2v-6.28h2v6.28Zm170-6.28h-2v-6.28h2v6.28Zm-170-6.28h-2v-6.28h2v6.28Zm170-6.28h-2v-6.28h2v6.28Zm-170-6.28h-2v-6.28h2v6.28Zm170-6.28h-2v-6.28h2v6.28Zm-170-6.28h-2v-6.28h2v6.28Zm170-6.28h-2v-6.28h2v6.28Zm-170-6.28h-2v-6.28h2v6.28Zm170-6.28h-2v-6.28h2v6.28Zm-6-5.02h-5v-2.51h5v2.51Zm-10,0h-5v-2.51h5v2.51Zm-10,0h-5v-2.51h5v2.51Zm-10,0h-5v-2.51h5v2.51Zm-10,0h-5v-2.51h5v2.51Zm-10,0h-5v-2.51h5v2.51Zm-10,0h-5v-2.51h5v2.51Zm-10,0h-5v-2.51h5v2.51Zm-10,0h-5v-2.51h5v2.51Zm-10,0h-5v-2.51h5v2.51Zm-10,0h-5v-2.51h5v2.51Zm-10,0h-5v-2.51h5v2.51Zm-10,0h-5v-2.51h5v2.51Zm-10,0h-5v-2.51h5v2.51Zm-10,0h-5v-2.51h5v2.51Zm-10,0h-5v-2.51h5v2.51Zm-10,0h-5v-2.51h5v2.51Z"/><path class="cls-1" d="m94.26,137.55h12.77v3.47h-8.62v5.4h7.36v3.47h-7.36v8.4h-4.14v-20.75Z"/><path class="cls-1" d="m110.3,153.9v-17.95h4.12v18.12c0,.95.42,1.26.81,1.26.17,0,.28,0,.56-.06l.5,3.05c-.48.2-1.15.36-2.13.36-2.86,0-3.86-1.88-3.86-4.79Z"/><path class="cls-1" d="m118.34,154.04c0-3.36,2.72-5.12,9.04-5.8-.08-1.54-.76-2.72-2.69-2.72-1.46,0-2.86.64-4.31,1.48l-1.48-2.72c1.85-1.15,4.09-2.07,6.55-2.07,3.98,0,6.02,2.38,6.02,6.92v9.16h-3.36l-.28-1.68h-.11c-1.37,1.18-2.94,2.07-4.73,2.07-2.8,0-4.65-1.99-4.65-4.65Zm9.04-.11v-3.16c-3.84.48-5.12,1.54-5.12,2.94,0,1.23.87,1.76,2.07,1.76s2.04-.56,3.05-1.54Z"/><path class="cls-1" d="m134.19,156.48l1.88-2.58c1.4,1.09,2.74,1.71,4.2,1.71,1.57,0,2.27-.67,2.27-1.65,0-1.18-1.62-1.71-3.28-2.35-1.99-.76-4.2-1.96-4.2-4.59,0-2.8,2.27-4.79,5.85-4.79,2.27,0,4.03.95,5.32,1.93l-1.85,2.49c-1.12-.81-2.21-1.34-3.36-1.34-1.43,0-2.1.62-2.1,1.51,0,1.15,1.46,1.57,3.11,2.18,2.07.78,4.37,1.82,4.37,4.73,0,2.74-2.16,4.96-6.24,4.96-2.1,0-4.4-.92-5.96-2.21Z"/><path class="cls-1" d="m149.53,135.96h4.12v5.63l-.2,2.94c1.26-1.18,2.8-2.3,4.93-2.3,3.39,0,4.84,2.35,4.84,6.3v9.77h-4.12v-9.27c0-2.44-.67-3.28-2.21-3.28-1.29,0-2.1.62-3.25,1.76v10.78h-4.12v-22.34Z"/><path class="cls-1" d="m80,171.15h6.86c4.26,0,7.5,1.26,7.5,5.12,0,1.9-1.06,3.86-2.83,4.48v.14c2.24.53,3.89,2.1,3.89,4.9,0,4.17-3.47,6.1-8.04,6.1h-7.39v-20.75Zm6.55,8.46c2.63,0,3.78-1.06,3.78-2.72,0-1.82-1.23-2.55-3.72-2.55h-2.46v5.26h2.41Zm.48,9.1c2.83,0,4.37-1.01,4.37-3.16,0-2.02-1.51-2.88-4.37-2.88h-2.88v6.05h2.88Z"/><path class="cls-1" d="m97.94,187.64c0-3.36,2.72-5.12,9.04-5.8-.08-1.54-.76-2.72-2.69-2.72-1.46,0-2.86.64-4.31,1.48l-1.48-2.72c1.85-1.15,4.09-2.07,6.55-2.07,3.98,0,6.02,2.38,6.02,6.92v9.16h-3.36l-.28-1.68h-.11c-1.37,1.18-2.94,2.07-4.73,2.07-2.8,0-4.65-1.99-4.65-4.65Zm9.04-.11v-3.16c-3.84.48-5.12,1.54-5.12,2.94,0,1.23.87,1.76,2.07,1.76s2.04-.56,3.05-1.54Z"/><path class="cls-1" d="m115.27,176.22h3.36l.31,2.07h.08c1.37-1.34,2.97-2.46,5.1-2.46,3.39,0,4.84,2.35,4.84,6.3v9.77h-4.12v-9.27c0-2.44-.67-3.28-2.21-3.28-1.29,0-2.1.62-3.25,1.76v10.78h-4.12v-15.68Z"/><path class="cls-1" d="m133.22,176.22h3.36l.31,2.07h.08c1.37-1.34,2.97-2.46,5.1-2.46,3.39,0,4.84,2.35,4.84,6.3v9.77h-4.12v-9.27c0-2.44-.67-3.28-2.21-3.28-1.29,0-2.1.62-3.25,1.76v10.78h-4.12v-15.68Z"/><path class="cls-1" d="m150.19,184.06c0-5.07,3.58-8.23,7.31-8.23,4.31,0,6.55,3.16,6.55,7.48,0,.78-.08,1.54-.2,1.9h-9.66c.34,2.58,2.02,3.92,4.34,3.92,1.29,0,2.41-.39,3.53-1.09l1.4,2.52c-1.54,1.06-3.53,1.74-5.46,1.74-4.4,0-7.81-3.05-7.81-8.23Zm10.33-1.6c0-2.1-.95-3.44-2.97-3.44-1.65,0-3.11,1.18-3.42,3.44h6.38Z"/><path class="cls-1" d="m167.44,176.22h3.36l.31,2.77h.08c1.15-2.04,2.83-3.16,4.45-3.16.87,0,1.37.14,1.85.34l-.7,3.56c-.56-.17-1.01-.25-1.65-.25-1.23,0-2.72.81-3.58,3.08v9.35h-4.12v-15.68Z"/></g></svg>